<?xml version="1.0" encoding="UTF-8"?>
<!DOCTYPE svg PUBLIC "-//W3C//DTD SVG 1.1//EN" "http://www.w3.org/Graphics/SVG/1.1/DTD/svg11.dtd">
<!-- Creator: CorelDRAW -->
<svg xmlns="http://www.w3.org/2000/svg" xml:space="preserve" width="47.4147in" height="26.0554in" version="1.1" style="shape-rendering:geometricPrecision; text-rendering:geometricPrecision; image-rendering:optimizeQuality; fill-rule:evenodd; clip-rule:evenodd"
viewBox="0 0 25497.13 14011.19"
 xmlns:xlink="http://www.w3.org/1999/xlink"
 xmlns:xodm="http://www.corel.com/coreldraw/odm/2003">
 <defs>
  <style type="text/css">
   <![CDATA[
    .str0 {stroke:#373435;stroke-width:3.73;stroke-miterlimit:2.61313}
    .fil0 {fill:#FEFEFE}
   ]]>
  </style>
 </defs>
 <g id="Layer_x0020_1">
  <metadata id="CorelCorpID_0Corel-Layer"/>
  <path class="fil0 str0" d="M1052.6 6164.36c320.23,-407.57 737.5,-776.32 1164.47,-1009.21 320.23,-174.67 640.46,-262.01 931.58,-223.19 29.11,0 48.52,0 58.22,9.7 77.63,67.93 77.63,368.75 9.71,815.13 -77.63,514.31 -262.01,1174.18 -504.61,1863.16 -262.01,747.2 -591.94,1533.21 -941.28,2251.3 -388.16,504.6 -747.21,989.8 -1028.62,1397.36 -252.3,359.04 -446.38,659.86 -562.83,863.65 -271.71,465.79 -242.6,698.68 164.96,621.05 38.82,-9.7 97.04,-38.81 174.67,-106.74 397.86,-339.64 989.81,-1319.73 1552.63,-2484.21 1183.87,-1533.21 2678.28,-3289.62 3454.59,-3774.82 242.6,-155.26 349.34,-203.77 368.75,-164.96 164.97,252.3 38.82,1125.65 -87.33,1931.08 -116.45,815.13 -232.9,1572.03 106.74,1834.04 58.22,38.82 116.45,58.22 164.96,58.22 145.56,-9.7 446.38,-281.41 853.95,-737.49 397.85,-446.38 892.75,-1067.43 1436.18,-1785.52 87.33,-116.45 174.67,-242.6 271.71,-359.04 -863.66,2785.03 -1048.03,5473.01 853.94,6171.69 87.34,29.12 126.15,-19.41 97.03,-106.74 -29.11,-87.34 -116.45,-184.38 -203.77,-213.49 -1717.6,-630.76 -1154.77,-3736.01 -58.22,-6705.4l77.62 -213.49c1630.26,-2319.23 3231.41,-4939.3 3202.3,-5705.9 -9.7,-271.71 -126.15,-397.86 -329.94,-388.16 -203.78,9.71 -747.2,747.2 -1368.26,1882.56 -582.23,1057.72 -1261.5,2474.5 -1814.63,3930.08 -339.63,494.91 -688.98,970.39 -1028.61,1416.78 -533.72,708.39 -1028.62,1329.44 -1426.48,1775.82 -310.53,349.34 -553.12,591.93 -688.98,669.57 9.7,-184.38 87.34,-718.08 174.67,-1290.62 126.15,-853.95 262.01,-1785.52 9.7,-2193.09 -194.08,-300.82 -475.49,-388.15 -883.06,-126.15 -582.23,368.76 -1572.03,1445.88 -2532.72,2610.36 106.75,-262.01 213.49,-533.72 300.83,-795.72 252.3,-698.68 436.68,-1358.55 514.31,-1882.56 87.33,-591.94 9.7,-1057.73 -281.42,-1290.62 -87.34,-67.93 -174.67,-106.74 -281.42,-116.45 -329.93,-38.82 -679.27,58.22 -1018.9,242.6 -446.38,232.89 -873.35,611.34 -1193.58,1038.32 -329.94,417.27 -562.83,883.05 -611.35,1280.91 -19.4,213.49 9.7,426.97 106.75,611.34 48.52,87.34 145.55,164.97 223.19,174.68 67.93,9.71 87.34,-58.22 38.81,-155.27 -58.22,-97.03 -67.92,-232.89 -48.52,-397.86 38.82,-368.75 262.01,-815.13 582.24,-1222.69zm9121.68 -1931.07c349.34,-766.61 708.39,-1465.29 1038.32,-2066.94 407.56,-737.49 766.61,-1300.32 1009.21,-1601.14 -232.9,766.61 -1057.74,2183.38 -2047.53,3668.08zm1852.96 5364.84c-342.7,274.75 -1133.38,893.43 -1163.98,709.8 -58.22,-271.71 58.22,-524.02 77.63,-572.53 29.11,-48.52 -9.71,-135.86 -77.63,-213.48 -87.33,-87.34 -174.67,-116.45 -213.48,-77.63 0,0 -883.05,1028.61 -1222.7,1125.65 106.74,-446.38 310.53,-795.72 669.57,-1086.84 174.68,-145.55 650.17,-368.75 844.25,-184.37 38.81,87.34 135.86,174.67 213.49,194.08 77.62,19.41 106.74,-38.81 67.93,-135.86 -164.97,-562.83 -960.69,-543.42 -1397.36,-184.38 -252.3,203.78 -475.5,504.61 -601.65,776.32 -58.22,126.15 -97.04,252.3 -106.74,368.75 -19.41,145.56 19.41,281.41 116.45,407.56 58.22,58.23 116.45,116.46 194.08,145.56 213.49,97.04 572.53,-203.78 921.87,-533.71 -9.7,475.49 329.94,611.34 776.32,378.45 102.85,-53.34 223.66,-138.08 371.22,-255.97l-157.73 255.97c-29.12,48.52 9.7,155.26 97.03,232.89 77.63,77.63 164.97,106.74 194.08,67.93 9.7,-9.7 1552.63,-1746.7 1581.74,-1504.11 29.12,339.63 -48.52,795.72 184.38,1048.02 165.65,172.85 464.92,94.47 1000.96,-322.39 -11.1,45.18 -18.19,88.22 -20.86,128.32 -29.12,553.12 524,504.6 853.94,300.82 242.6,-155.26 553.12,-397.85 902.47,-698.67l9.7 -19.41c67.92,38.81 126.15,29.11 135.85,-19.41 0,-9.7 9.7,-48.52 9.7,-116.45 184.37,-164.96 368.75,-349.34 553.12,-543.42 -1242.1,2047.52 -2532.72,4260.02 -2416.27,4531.73 29.11,97.04 126.15,184.37 203.78,203.77 77.62,19.41 116.45,-29.11 77.62,-126.15 -135.86,-320.22 3464.3,-5997.01 4415.28,-7491.42 155.27,-232.89 232.9,-359.04 232.9,-359.04 29.11,-58.22 -19.41,-155.26 -97.04,-232.89 -87.34,-87.34 -174.67,-106.75 -203.78,-58.22l-203.78 310.52c-262.01,407.56 -805.43,1193.58 -1601.15,2144.57 -349.34,417.26 -718.09,815.13 -1077.13,1154.76 -97.04,-145.55 -213.49,-339.63 -591.94,-329.92 -337.66,-16.08 -681.97,347.49 -900.51,654.78 -738.25,664.42 -1013.57,729.85 -1049.96,684.35 0,0 -9.7,-630.76 -19.41,-718.08 -58.22,-640.46 -601.65,-397.86 -1135.36,9.7l2125.15 -3444.89c29.12,-48.52 -9.7,-155.26 -97.03,-232.89 -77.63,-77.63 -174.68,-106.74 -203.78,-58.22l-2271.21 3686.07zm2834.03 535.14c164.96,-271.71 553.12,-747.2 902.47,-727.8 126.15,0 174.67,77.63 194.07,145.56l-106.74 106.74c-339.63,300.83 -650.17,543.42 -892.76,688.99 -106.74,67.92 -194.08,116.45 -252.3,145.55 19.41,-97.03 77.63,-223.19 155.27,-359.04zm5152.78 -4221.2l-2959.69 4803.44c-29.12,48.52 9.7,155.26 97.03,232.89 77.63,77.63 164.97,106.74 194.08,67.93 9.7,-9.7 1552.63,-1746.7 1581.74,-1504.11 29.12,339.63 -48.52,795.72 184.38,1048.02 176.03,183.68 502.96,83.67 1104.58,-404.79 32.06,288.09 211.92,553.11 467.45,695.91 457.89,258.8 1310.59,-149.49 1890.88,-585.58 60.14,244.22 225.27,461.24 447.77,585.58 669.58,378.45 2183.38,-669.57 2455.09,-1145.06 29.12,-58.22 29.12,-97.04 -48.52,-174.68 -87.34,-77.62 -184.38,-9.7 -213.49,48.53 -297.22,536.92 -2858.56,1718.03 -2283.28,379.62 17.64,-17.62 34.51,-35.03 50.53,-52.15 117.86,-13.16 567.38,-82.43 971.24,-288.65 232.9,-116.45 426.98,-329.94 533.72,-533.71 48.52,-97.04 87.34,-184.38 97.03,-271.71 19.41,-116.45 -19.4,-242.6 -116.45,-349.34 -67.93,-77.63 -145.55,-126.15 -232.89,-145.55 -106.74,-19.41 -368.75,97.04 -650.17,291.11 -213.48,155.27 -436.68,359.04 -630.75,572.53 -189.66,218.11 -332.98,464.01 -384.69,701.5 -759.76,562.06 -2506.42,1212.46 -1953.96,26.29 29.11,0 543.42,-58.22 999.5,-291.12 232.9,-116.45 426.98,-329.94 533.72,-533.71 48.52,-97.04 87.34,-184.38 97.04,-271.71 19.41,-116.45 -19.4,-242.6 -116.45,-349.34 -67.93,-77.63 -145.55,-126.15 -232.89,-145.55 -106.74,-19.41 -368.75,97.04 -650.17,291.11 -213.48,155.27 -436.68,359.04 -630.75,572.53 -166.42,191.37 -297.15,404.14 -361.63,613.86 -633.22,548.55 -875.58,602.81 -909.57,560.31 0,0 -9.7,-630.76 -19.41,-718.08 -58.22,-640.46 -601.65,-397.86 -1135.36,9.7l2125.15 -3444.89c29.12,-48.52 -9.7,-155.26 -97.03,-232.89 -77.63,-77.63 -174.68,-106.74 -203.78,-58.22zm3250.81 3551.64c174.68,-203.78 397.86,-388.16 591.94,-533.72 145.56,-106.74 271.71,-184.37 378.45,-232.89 -19.41,38.81 -29.12,67.93 -48.52,106.74 -106.75,184.37 -281.42,388.16 -485.2,494.9 -155.26,67.93 -300.82,126.15 -436.68,164.97zm-2338.64 0c174.68,-203.78 397.86,-388.16 591.94,-533.72 145.56,-106.74 271.71,-184.37 378.45,-232.89 -19.41,38.81 -29.12,67.93 -48.52,106.74 -106.75,184.37 -281.42,388.16 -485.2,494.9 -155.26,67.93 -300.82,126.15 -436.68,164.97z"/>
 </g>
</svg>
